<svg xmlns="http://www.w3.org/2000/svg" xmlns:xlink="http://www.w3.org/1999/xlink">
	<symbol id="arrow" viewBox="0 0 11 11" fill="none" xmlns="http://www.w3.org/2000/svg">
		<path d="M1.24264 10.2426L9.72792 1.75736M9.72792 1.75736H1.24264M9.72792 1.75736V10.2426" stroke="#08173E" stroke-width="2"/>
	</symbol>
	<symbol id="open" width="11" height="10" viewBox="0 0 11 10" fill="none" xmlns="http://www.w3.org/2000/svg">
		<path d="M10.3483 5.12188L0.620698 5.12192M10.3494 8.62171L0.62175 8.62175M10.3483 1.37928L0.620697 1.3793" stroke="#08173E" stroke-width="2"/>
	</symbol>
	<symbol id="close" width="10" height="10" viewBox="0 0 10 10" fill="none" xmlns="http://www.w3.org/2000/svg">
		<path d="M9 9L1 1" stroke="#08173E" stroke-width="2"/>
		<path d="M1 9L9 1" stroke="#08173E" stroke-width="2"/>
	</symbol>
	<symbol id="tg" xmlns="http://www.w3.org/2000/svg" width="30" height="26" viewBox="0 0 30 26" fill="none">
  	<path d="M27.2137 1.17688C27.2137 1.17688 29.9658 0.103751 29.7364 2.70991C29.66 3.78305 28.972 7.53899 28.4368 11.6016L26.6021 23.6359C26.6021 23.6359 26.4492 25.3989 25.0732 25.7055C23.6971 26.0121 21.6331 24.6324 21.2508 24.3258C20.945 24.0959 15.5173 20.6465 13.6061 18.9602C13.0709 18.5002 12.4594 17.5804 13.6825 16.5073L21.7095 8.84211C22.6269 7.92227 23.5442 5.77602 19.7218 8.38219L9.01928 15.6641C9.01928 15.6641 7.79613 16.4306 5.50276 15.7408L0.533673 14.2077C0.533673 14.2077 -1.30106 13.058 1.83327 11.9081C9.478 8.30548 18.881 4.62618 27.2137 1.17688Z" fill="white"/>
	</symbol>
	<symbol id="wa" width="28" height="30" viewBox="0 0 28 30" fill="none" xmlns="http://www.w3.org/2000/svg">
		<path d="M14 0C6.25333 0 0 6.28125 0 14.0625C0 17.25 1.02667 20.25 2.98667 22.6875L1.02667 28.6875C0.933333 29.0625 1.02667 29.4375 1.30667 29.7188C1.4 29.9062 1.68 30 1.86667 30C1.96 30 2.14667 30 2.24 29.9062L8.68 27C10.36 27.75 12.1333 28.125 14 28.125C21.7467 28.125 28 21.8438 28 14.0625C28 6.28125 21.7467 0 14 0ZM22.12 19.2188C21.7467 20.3438 20.3467 21.2812 19.1333 21.4688C18.8533 21.5625 18.5733 21.5625 18.2 21.5625C17.4533 21.5625 16.3333 21.375 14.3733 20.5312C12.1333 19.5938 9.89333 17.625 8.12 15.0938V15C7.56 14.1562 6.53333 12.5625 6.53333 10.875C6.53333 8.8125 7.56 7.78125 7.93333 7.3125C8.4 6.84375 9.05333 6.5625 9.8 6.5625C9.98667 6.5625 10.08 6.5625 10.2667 6.5625C10.92 6.5625 11.3867 6.75 11.8533 7.6875L12.2267 8.4375C12.5067 9.1875 12.88 10.0312 12.9733 10.125C13.2533 10.6875 13.2533 11.1562 12.9733 11.625C12.88 11.9062 12.6933 12.0938 12.5067 12.2812C12.4133 12.4688 12.32 12.5625 12.2267 12.5625C12.1333 12.6562 12.1333 12.6562 12.04 12.75C12.32 13.2188 12.88 14.0625 13.6267 14.7188C14.7467 15.75 15.5867 16.0312 16.0533 16.2188C16.24 16.0312 16.4267 15.6562 16.7067 15.375L16.8 15.1875C17.2667 14.5313 18.0133 14.3438 18.76 14.625C19.1333 14.8125 21.1867 15.75 21.1867 15.75L21.3733 15.8438C21.6533 16.0312 22.0267 16.125 22.2133 16.5C22.5867 17.3438 22.3067 18.5625 22.12 19.2188Z" fill="white"/>
	</symbol>
</svg>
